<svg xmlns="http://www.w3.org/2000/svg" version="1.1" xmlns:xlink="http://www.w3.org/1999/xlink" xmlns:svgjs="http://svgjs.com/svgjs" width="512" height="512" x="0" y="0" viewBox="0 0 512 512" style="enable-background:new 0 0 512 512" xml:space="preserve" class=""><g><g xmlns="http://www.w3.org/2000/svg"><path d="m188.623 18.645c19.671 23.49 67.84 84.761 106.365 163.969 48.164-13.549 98.742-37.576 148.389-77.393l11.989-9.613c-46.965-58.261-118.88-95.608-199.366-95.608-25.676 0-50.475 3.816-73.877 10.883z" fill="#f8f9fa" data-original="#000000" class=""></path><path d="m462.146 128.625c-47.824 38.354-99.46 65.718-154.35 81.929 7.649 17.728 14.313 35.331 19.972 52.745 50.472-4.293 107.48 2.775 169.609 21.057l12.618 3.713c1.32-10.508 2.005-21.21 2.005-32.069 0-49.912-14.372-96.523-39.174-135.941z" fill="#f8f9fa" data-original="#000000" class=""></path><path d="m31.124 170.417c25.439 9.648 81.816 27.307 152.898 27.309 25.47.001 52.83-2.271 81.33-7.986-35.359-70.856-78.26-126.196-99.73-151.836l-13.339-15.929c-62.075 27.619-111.198 79.228-135.54 142.988z" fill="#f8f9fa" data-original="#000000" class=""></path><path d="m98.528 445.015c11.277-33.572 39.53-96.218 102.051-138.584 28.486-19.302 61.125-32.396 97.248-39.1-5.695-16.956-12.177-33.43-19.169-49.287-26.899 5.902-54.523 9.237-82.82 9.946-3.789.096-7.553.142-11.271.142-74.385.001-134.246-18.348-164.082-29.664l-12.784-4.848c-5.02 19.975-7.701 40.869-7.701 62.38 0 80.284 37.159 152.041 95.17 199.013z" fill="#f8f9fa" data-original="#000000" class=""></path><path d="m488.909 313.135c-59.847-17.61-110.163-23.102-152.444-20.31 3.805 14.495 6.888 28.828 9.23 42.957 9.029 54.46 7.184 106.526-5.487 154.754l-2.091 7.957c81.898-27.808 145.288-96.024 166.345-180.781z" fill="#f8f9fa" data-original="#000000" class=""></path><path d="m311.192 482.912c16.635-63.314 11.48-127.281-4.563-186.575-117.872 20.396-163.458 109.984-179.664 158.23l-6.268 18.658c39.284 24.557 85.661 38.775 135.303 38.775 16.678 0 32.983-1.622 48.781-4.682z" fill="#f8f9fa" data-original="#000000" class=""></path></g></g></svg>